<svg width="375" height="812" viewBox="0 0 375 812" fill="none" xmlns="http://www.w3.org/2000/svg">
  <!-- Background -->
  <rect width="375" height="812" fill="#121212"/>

  <!-- Status Bar -->
  <rect y="0" width="375" height="44" fill="#0A0A0A"/>
  <text x="187" y="28" text-anchor="middle" fill="#FFFFFF" font-family="system-ui" font-size="14" font-weight="600">9:41</text>

  <!-- Header -->
  <rect y="44" width="375" height="56" fill="#1E1E1E"/>
  <text x="30" y="80" fill="#FFFFFF" font-family="system-ui" font-size="16">←</text>
  <text x="187" y="80" text-anchor="middle" fill="#FFD700" font-family="system-ui" font-size="18" font-weight="700">클럽 만들기</text>

  <!-- Club Logo Placeholder -->
  <circle cx="187" cy="180" r="50" fill="#2A2A2A" stroke="#3A3A3C"/>
  <text x="187" y="195" text-anchor="middle" fill="#FFD700" font-size="40">🎾</text>
  <text x="187" y="250" text-anchor="middle" fill="#B3B3B3" font-family="system-ui" font-size="13">탭하여 로고 추가</text>

  <!-- Form Fields -->
  <!-- Club Name -->
  <rect x="20" y="290" width="335" height="60" rx="12" fill="#1E1E1E" stroke="#3A3A3C"/>
  <text x="35" y="310" fill="#666666" font-family="system-ui" font-size="12">클럽 이름</text>
  <text x="35" y="335" fill="#FFFFFF" font-family="system-ui" font-size="16">Atlanta Thunder ⚡</text>

  <!-- Description -->
  <rect x="20" y="365" width="335" height="90" rx="12" fill="#1E1E1E" stroke="#3A3A3C"/>
  <text x="35" y="385" fill="#666666" font-family="system-ui" font-size="12">클럽 소개</text>
  <text x="35" y="410" fill="#FFFFFF" font-family="system-ui" font-size="14">Metro Atlanta 최고의</text>
  <text x="35" y="430" fill="#FFFFFF" font-family="system-ui" font-size="14">테니스 커뮤니티입니다.</text>

  <!-- Home Court -->
  <rect x="20" y="470" width="335" height="60" rx="12" fill="#1E1E1E" stroke="#3A3A3C"/>
  <text x="35" y="490" fill="#666666" font-family="system-ui" font-size="12">홈 코트</text>
  <text x="35" y="515" fill="#FFFFFF" font-family="system-ui" font-size="16">📍 Piedmont Park Tennis Center</text>

  <!-- Join Policy -->
  <rect x="20" y="545" width="335" height="60" rx="12" fill="#1E1E1E" stroke="#3A3A3C"/>
  <text x="35" y="565" fill="#666666" font-family="system-ui" font-size="12">가입 정책</text>
  <text x="35" y="590" fill="#FFFFFF" font-family="system-ui" font-size="16">🔓 누구나 가입 가능</text>

  <!-- Create Button -->
  <rect x="20" y="650" width="335" height="56" rx="28" fill="#FFD700"/>
  <text x="187" y="685" text-anchor="middle" fill="#000000" font-family="system-ui" font-size="16" font-weight="700">클럽 만들기</text>

  <!-- Placeholder Label -->
  <rect x="120" y="720" width="135" height="30" rx="8" fill="#FFD700" opacity="0.2"/>
  <text x="187" y="740" text-anchor="middle" fill="#FFD700" font-family="system-ui" font-size="12" font-weight="500">PLACEHOLDER IMAGE</text>

  <!-- Bottom Tab Bar -->
  <rect y="762" width="375" height="50" fill="#0A0A0A"/>
  <line x1="0" y1="762" x2="375" y2="762" stroke="#3A3A3C" stroke-width="0.5"/>
</svg>
