<svg width="375" height="812" viewBox="0 0 375 812" fill="none" xmlns="http://www.w3.org/2000/svg">
  <!-- Background -->
  <rect width="375" height="812" fill="#121212"/>

  <!-- Status Bar -->
  <rect y="0" width="375" height="44" fill="#0A0A0A"/>
  <text x="187" y="28" text-anchor="middle" fill="#FFFFFF" font-family="system-ui" font-size="14" font-weight="600">9:41</text>

  <!-- Header -->
  <rect y="44" width="375" height="56" fill="#1E1E1E"/>
  <text x="30" y="80" fill="#FFFFFF" font-family="system-ui" font-size="16">←</text>
  <text x="187" y="80" text-anchor="middle" fill="#FFD700" font-family="system-ui" font-size="18" font-weight="700">번개 모임 생성</text>

  <!-- Meetup Type Badge -->
  <rect x="130" y="120" width="115" height="30" rx="15" fill="#4CAF50" opacity="0.2"/>
  <text x="187" y="140" text-anchor="middle" fill="#4CAF50" font-family="system-ui" font-size="14" font-weight="600">😊 소셜 모임</text>

  <!-- Title -->
  <rect x="20" y="170" width="335" height="60" rx="12" fill="#1E1E1E" stroke="#3A3A3C"/>
  <text x="35" y="195" fill="#666666" font-family="system-ui" font-size="12">모임 제목</text>
  <text x="35" y="218" fill="#FFFFFF" font-family="system-ui" font-size="16" font-weight="500">주말 랠리 파티 🎾</text>

  <!-- Date & Time -->
  <rect x="20" y="245" width="335" height="60" rx="12" fill="#1E1E1E" stroke="#3A3A3C"/>
  <text x="35" y="270" fill="#666666" font-family="system-ui" font-size="12">📅 날짜 및 시간</text>
  <text x="35" y="293" fill="#FFFFFF" font-family="system-ui" font-size="16" font-weight="500">2025년 1월 18일 (토) 오전 10:00</text>

  <!-- Location -->
  <rect x="20" y="320" width="335" height="60" rx="12" fill="#1E1E1E" stroke="#3A3A3C"/>
  <text x="35" y="345" fill="#666666" font-family="system-ui" font-size="12">📍 장소</text>
  <text x="35" y="368" fill="#FFFFFF" font-family="system-ui" font-size="16" font-weight="500">Piedmont Park Tennis Center</text>

  <!-- Tags Section -->
  <text x="20" y="410" fill="#FFFFFF" font-family="system-ui" font-size="14" font-weight="600">분위기 태그</text>
  <rect x="20" y="425" width="100" height="36" rx="18" fill="#FFD700" opacity="0.2" stroke="#FFD700"/>
  <text x="70" y="448" text-anchor="middle" fill="#FFD700" font-family="system-ui" font-size="13">초보자 환영</text>

  <rect x="130" y="425" width="85" height="36" rx="18" fill="#4CAF50" opacity="0.2" stroke="#4CAF50"/>
  <text x="172" y="448" text-anchor="middle" fill="#4CAF50" font-family="system-ui" font-size="13">랠리 위주</text>

  <rect x="225" y="425" width="75" height="36" rx="18" fill="#2196F3" opacity="0.2" stroke="#2196F3"/>
  <text x="262" y="448" text-anchor="middle" fill="#2196F3" font-family="system-ui" font-size="13">재미 추구</text>

  <!-- Max Participants -->
  <rect x="20" y="480" width="335" height="70" rx="12" fill="#1E1E1E" stroke="#3A3A3C"/>
  <text x="35" y="505" fill="#666666" font-family="system-ui" font-size="12">👥 최대 참가 인원</text>
  <rect x="35" y="520" width="120" height="25" rx="12" fill="#2A2A2A"/>
  <text x="55" y="538" fill="#FFFFFF" font-family="system-ui" font-size="14">-</text>
  <text x="95" y="538" text-anchor="middle" fill="#FFFFFF" font-family="system-ui" font-size="16" font-weight="600">8명</text>
  <text x="135" y="538" fill="#FFFFFF" font-family="system-ui" font-size="14">+</text>

  <!-- Description -->
  <rect x="20" y="565" width="335" height="80" rx="12" fill="#1E1E1E" stroke="#3A3A3C"/>
  <text x="35" y="590" fill="#666666" font-family="system-ui" font-size="12">소개</text>
  <text x="35" y="615" fill="#FFFFFF" font-family="system-ui" font-size="14">실력 상관없이 함께 즐겨요!</text>
  <text x="35" y="635" fill="#FFFFFF" font-family="system-ui" font-size="14">모임 후 브런치도 계획 중 🥐</text>

  <!-- Create Button -->
  <rect x="20" y="665" width="335" height="56" rx="28" fill="#4CAF50"/>
  <text x="187" y="700" text-anchor="middle" fill="#FFFFFF" font-family="system-ui" font-size="16" font-weight="700">모임 만들기</text>

  <!-- Placeholder Label -->
  <rect x="120" y="730" width="135" height="30" rx="8" fill="#FFD700" opacity="0.2"/>
  <text x="187" y="750" text-anchor="middle" fill="#FFD700" font-family="system-ui" font-size="12" font-weight="500">PLACEHOLDER IMAGE</text>

  <!-- Bottom Tab Bar -->
  <rect y="762" width="375" height="50" fill="#0A0A0A"/>
  <line x1="0" y1="762" x2="375" y2="762" stroke="#3A3A3C" stroke-width="0.5"/>
</svg>
