<svg width="375" height="812" viewBox="0 0 375 812" fill="none" xmlns="http://www.w3.org/2000/svg">
  <!-- Background -->
  <rect width="375" height="812" fill="#121212"/>

  <!-- Status Bar -->
  <rect y="0" width="375" height="44" fill="#0A0A0A"/>
  <text x="187" y="28" text-anchor="middle" fill="#FFFFFF" font-family="system-ui" font-size="14" font-weight="600">9:41</text>

  <!-- Header -->
  <rect y="44" width="375" height="56" fill="#1E1E1E"/>
  <text x="30" y="80" fill="#FFFFFF" font-family="system-ui" font-size="16">←</text>
  <text x="187" y="80" text-anchor="middle" fill="#FFD700" font-family="system-ui" font-size="18" font-weight="700">번개 매치 생성</text>

  <!-- Match Type Badge -->
  <rect x="130" y="120" width="115" height="30" rx="15" fill="#FFD700" opacity="0.2"/>
  <text x="187" y="140" text-anchor="middle" fill="#FFD700" font-family="system-ui" font-size="14" font-weight="600">🏆 ELO 랭킹전</text>

  <!-- Date & Time -->
  <rect x="20" y="170" width="335" height="80" rx="16" fill="#1E1E1E" stroke="#3A3A3C"/>
  <text x="35" y="195" fill="#FFD700" font-size="24">📅</text>
  <text x="65" y="200" fill="#666666" font-family="system-ui" font-size="12">날짜 및 시간</text>
  <text x="65" y="225" fill="#FFFFFF" font-family="system-ui" font-size="16" font-weight="500">2025년 1월 15일 (수) 오후 6:00</text>

  <!-- Location -->
  <rect x="20" y="265" width="335" height="80" rx="16" fill="#1E1E1E" stroke="#3A3A3C"/>
  <text x="35" y="290" fill="#FFD700" font-size="24">📍</text>
  <text x="65" y="295" fill="#666666" font-family="system-ui" font-size="12">장소</text>
  <text x="65" y="320" fill="#FFFFFF" font-family="system-ui" font-size="16" font-weight="500">Blackburn Tennis Center</text>

  <!-- LTR Range -->
  <rect x="20" y="360" width="335" height="120" rx="16" fill="#1E1E1E" stroke="#3A3A3C"/>
  <text x="35" y="390" fill="#FFD700" font-size="24">🎯</text>
  <text x="65" y="395" fill="#666666" font-family="system-ui" font-size="12">LTR 레벨 범위</text>

  <!-- LTR Slider Visual -->
  <rect x="35" y="420" width="305" height="8" rx="4" fill="#2A2A2A"/>
  <rect x="95" y="420" width="185" height="8" rx="4" fill="#FFD700"/>
  <circle cx="95" cy="424" r="12" fill="#FFD700"/>
  <circle cx="280" cy="424" r="12" fill="#FFD700"/>

  <text x="95" y="460" text-anchor="middle" fill="#FFFFFF" font-family="system-ui" font-size="14" font-weight="600">LTR 4</text>
  <text x="280" y="460" text-anchor="middle" fill="#FFFFFF" font-family="system-ui" font-size="14" font-weight="600">LTR 7</text>

  <!-- Match Format -->
  <rect x="20" y="495" width="160" height="60" rx="12" fill="#1E1E1E" stroke="#FFD700"/>
  <text x="100" y="532" text-anchor="middle" fill="#FFFFFF" font-family="system-ui" font-size="14" font-weight="500">🎾 Singles</text>

  <rect x="195" y="495" width="160" height="60" rx="12" fill="#1E1E1E" stroke="#3A3A3C"/>
  <text x="275" y="532" text-anchor="middle" fill="#666666" font-family="system-ui" font-size="14">🤝 Doubles</text>

  <!-- Notes -->
  <rect x="20" y="570" width="335" height="70" rx="12" fill="#1E1E1E" stroke="#3A3A3C"/>
  <text x="35" y="595" fill="#666666" font-family="system-ui" font-size="12">메모 (선택)</text>
  <text x="35" y="620" fill="#FFFFFF" font-family="system-ui" font-size="14">정정당당하게 경기합시다! 💪</text>

  <!-- Create Button -->
  <rect x="20" y="660" width="335" height="56" rx="28" fill="#FFD700"/>
  <text x="187" y="695" text-anchor="middle" fill="#000000" font-family="system-ui" font-size="16" font-weight="700">매치 생성하기</text>

  <!-- Placeholder Label -->
  <rect x="120" y="725" width="135" height="30" rx="8" fill="#FFD700" opacity="0.2"/>
  <text x="187" y="745" text-anchor="middle" fill="#FFD700" font-family="system-ui" font-size="12" font-weight="500">PLACEHOLDER IMAGE</text>

  <!-- Bottom Tab Bar -->
  <rect y="762" width="375" height="50" fill="#0A0A0A"/>
  <line x1="0" y1="762" x2="375" y2="762" stroke="#3A3A3C" stroke-width="0.5"/>
</svg>
