<svg width="375" height="812" viewBox="0 0 375 812" fill="none" xmlns="http://www.w3.org/2000/svg">
  <!-- Background -->
  <rect width="375" height="812" fill="#121212"/>

  <!-- Status Bar -->
  <rect y="0" width="375" height="44" fill="#0A0A0A"/>
  <text x="187" y="28" text-anchor="middle" fill="#FFFFFF" font-family="system-ui" font-size="14" font-weight="600">9:41</text>

  <!-- Header -->
  <rect y="44" width="375" height="56" fill="#1E1E1E"/>
  <text x="187" y="80" text-anchor="middle" fill="#FFD700" font-family="system-ui" font-size="18" font-weight="700">Create</text>

  <!-- Modal Background -->
  <rect x="20" y="200" width="335" height="400" rx="24" fill="#1E1E1E"/>
  <rect x="20" y="200" width="335" height="400" rx="24" stroke="#3A3A3C" stroke-width="1"/>

  <!-- Modal Title -->
  <text x="187" y="250" text-anchor="middle" fill="#FFFFFF" font-family="system-ui" font-size="20" font-weight="700">무엇을 만들까요?</text>

  <!-- Option 1: Club -->
  <rect x="40" y="280" width="295" height="80" rx="16" fill="#2A2A2A"/>
  <text x="75" y="305" fill="#FFD700" font-size="28">🛡️</text>
  <text x="110" y="310" fill="#FFFFFF" font-family="system-ui" font-size="16" font-weight="600">클럽 만들기</text>
  <text x="110" y="335" fill="#B3B3B3" font-family="system-ui" font-size="13">나만의 테니스 클럽 창설</text>

  <!-- Option 2: Match -->
  <rect x="40" y="375" width="295" height="80" rx="16" fill="#2A2A2A"/>
  <text x="75" y="400" fill="#FFD700" font-size="28">🏆</text>
  <text x="110" y="405" fill="#FFFFFF" font-family="system-ui" font-size="16" font-weight="600">공용 번개매치</text>
  <text x="110" y="430" fill="#B3B3B3" font-family="system-ui" font-size="13">ELO 랭킹전 호스트</text>

  <!-- Option 3: Meetup -->
  <rect x="40" y="470" width="295" height="80" rx="16" fill="#2A2A2A"/>
  <text x="75" y="495" fill="#FFD700" font-size="28">😊</text>
  <text x="110" y="500" fill="#FFFFFF" font-family="system-ui" font-size="16" font-weight="600">공용 번개모임</text>
  <text x="110" y="525" fill="#B3B3B3" font-family="system-ui" font-size="13">가벼운 테니스 모임 주최</text>

  <!-- Placeholder Label -->
  <rect x="120" y="700" width="135" height="30" rx="8" fill="#FFD700" opacity="0.2"/>
  <text x="187" y="720" text-anchor="middle" fill="#FFD700" font-family="system-ui" font-size="12" font-weight="500">PLACEHOLDER IMAGE</text>

  <!-- Bottom Tab Bar -->
  <rect y="762" width="375" height="50" fill="#0A0A0A"/>
  <line x1="0" y1="762" x2="375" y2="762" stroke="#3A3A3C" stroke-width="0.5"/>
</svg>
